<mxfile host="app.diagrams.net" modified="2023-01-17T04:49:28.683Z" agent="5.0 (Macintosh; Intel Mac OS X 10_15_7) AppleWebKit/537.36 (KHTML, like Gecko) Chrome/109.0.0.0 Safari/537.36" version="20.8.5" etag="OXsmBSJcsaaR-7wINngk" type="github">
  <diagram id="kPCyAMe62raDHzs4O24H" name="Page-1">
    <mxGraphModel dx="954" dy="566" grid="1" gridSize="10" guides="1" tooltips="1" connect="1" arrows="1" fold="1" page="1" pageScale="1" pageWidth="827" pageHeight="1169" math="0" shadow="0">
      <root>
        <mxCell id="0" />
        <mxCell id="1" parent="0" />
        <mxCell id="ucvBp03UbrODxjdlVww1-13" value="" style="ellipse;shape=cloud;whiteSpace=wrap;html=1;strokeWidth=5;fillColor=#dae8fc;strokeColor=#6c8ebf;" vertex="1" parent="1">
          <mxGeometry x="40" y="200" width="560" height="170" as="geometry" />
        </mxCell>
        <mxCell id="ucvBp03UbrODxjdlVww1-3" value="" style="shape=image;verticalLabelPosition=bottom;labelBackgroundColor=default;verticalAlign=top;aspect=fixed;imageAspect=0;image=https://punchplatform.com/wp-content/uploads/2018/10/keycloak_logo.png;" vertex="1" parent="1">
          <mxGeometry x="295" y="262.04" width="70" height="74.46" as="geometry" />
        </mxCell>
        <mxCell id="ucvBp03UbrODxjdlVww1-4" value="" style="shape=image;html=1;verticalAlign=top;verticalLabelPosition=bottom;labelBackgroundColor=#ffffff;imageAspect=0;aspect=fixed;image=https://cdn1.iconfinder.com/data/icons/unicons-line-vol-5/24/react-128.png" vertex="1" parent="1">
          <mxGeometry x="150" y="262.04" width="70" height="70" as="geometry" />
        </mxCell>
        <mxCell id="ucvBp03UbrODxjdlVww1-5" value="" style="aspect=fixed;html=1;points=[];align=center;image;fontSize=12;image=img/lib/azure2/identity/Azure_Active_Directory.svg;" vertex="1" parent="1">
          <mxGeometry x="441" y="269.98" width="59.19" height="54.12" as="geometry" />
        </mxCell>
        <mxCell id="ucvBp03UbrODxjdlVww1-6" value="" style="shape=image;verticalLabelPosition=bottom;labelBackgroundColor=default;verticalAlign=top;aspect=fixed;imageAspect=0;image=https://www.rydoo.com/app/uploads/2022/09/Single-Sign-On-logo.png;" vertex="1" parent="1">
          <mxGeometry x="280" y="179.10999999999999" width="100" height="76.93" as="geometry" />
        </mxCell>
        <mxCell id="ucvBp03UbrODxjdlVww1-7" value="" style="shape=cross;whiteSpace=wrap;html=1;fillColor=#ffe6cc;strokeColor=#d79b00;strokeWidth=5;" vertex="1" parent="1">
          <mxGeometry x="230" y="276" width="45" height="40" as="geometry" />
        </mxCell>
        <mxCell id="ucvBp03UbrODxjdlVww1-8" value="" style="shape=cross;whiteSpace=wrap;html=1;fillColor=#ffe6cc;strokeColor=#d79b00;strokeWidth=5;" vertex="1" parent="1">
          <mxGeometry x="380" y="277.04" width="40" height="40" as="geometry" />
        </mxCell>
      </root>
    </mxGraphModel>
  </diagram>
</mxfile>
